<?xml version="1.0" standalone="no"?>
<!DOCTYPE svg PUBLIC "-//W3C//DTD SVG 20010904//EN"
 "http://www.w3.org/TR/2001/REC-SVG-20010904/DTD/svg10.dtd">
<svg version="1.0" xmlns="http://www.w3.org/2000/svg"
 width="130.000000pt" height="80.000000pt" viewBox="0 0 130.000000 80.000000"
 preserveAspectRatio="xMidYMid meet">

<g transform="translate(0.000000,80.000000) scale(0.100000,-0.100000)"
fill="#000000" stroke="none">
<path d="M560 750 c8 -5 24 -10 34 -10 11 0 30 -10 43 -22 19 -18 26 -19 45
-10 l23 12 -24 -6 c-17 -5 -29 -1 -40 14 -9 11 -34 22 -56 25 -27 5 -35 3 -25
-3z"/>
<path d="M596 651 c17 -4 37 -11 45 -15 8 -4 5 0 -5 8 -11 9 -31 16 -45 15
-24 -1 -24 -2 5 -8z"/>
<path d="M504 610 c20 -22 36 -45 36 -51 0 -5 -27 -35 -59 -65 -60 -56 -95
-112 -107 -173 l-7 -34 36 27 c44 34 62 29 71 -16 3 -18 20 -60 36 -93 16 -33
22 -50 13 -37 -15 21 -17 22 -35 6 -11 -10 -41 -19 -73 -22 l-55 -5 26 -46
c15 -25 30 -50 34 -55 12 -13 81 13 112 42 23 21 26 28 15 41 -6 9 6 1 27 -18
55 -47 95 -61 173 -61 l68 1 -37 20 c-21 11 -38 24 -38 30 0 6 20 33 44 60 47
52 76 120 76 176 0 27 -5 35 -27 44 -50 19 -111 13 -154 -15 -47 -32 -50 -46
-6 -40 17 3 45 1 61 -5 25 -10 28 -15 22 -44 -8 -41 -35 -77 -75 -101 l-32
-19 -37 30 c-20 17 -45 45 -56 64 l-18 34 25 -30 c15 -16 26 -34 27 -38 0 -5
5 -5 10 -2 6 4 10 67 10 155 l0 150 46 42 c50 46 46 58 -10 34 -31 -13 -36
-13 -36 0 0 9 -11 14 -32 14 -18 0 -46 9 -63 20 -47 31 -51 24 -11 -20z m113
-62 c-3 -8 -6 -5 -6 6 -1 11 2 17 5 13 3 -3 4 -12 1 -19z m-80 -225 c-2 -16
-4 -5 -4 22 0 28 2 40 4 28 2 -13 2 -35 0 -50z"/>
<path d="M671 530 c0 -15 -6 -31 -13 -38 -9 -9 -9 -12 0 -12 16 0 25 23 19 52
-4 22 -4 22 -6 -2z"/>
<path d="M707 532 c3 -12 9 -25 14 -28 14 -8 11 10 -6 32 -13 18 -14 18 -8 -4z"/>
<path d="M756 542 c-3 -6 2 -13 11 -16 15 -6 15 -8 3 -16 -9 -6 -10 -10 -3
-10 19 0 22 14 8 33 -7 10 -16 14 -19 9z"/>
<path d="M823 537 c4 -10 7 -24 7 -30 0 -8 3 -8 11 0 9 9 7 16 -7 30 -17 17
-18 17 -11 0z"/>
<path d="M876 534 c-8 -21 -8 -21 8 -21 8 0 11 8 8 19 -5 22 -8 23 -16 2z"/>
<path d="M910 525 c0 -14 4 -25 9 -25 4 0 6 11 3 25 -2 14 -6 25 -8 25 -2 0
-4 -11 -4 -25z"/>
<path d="M800 531 c0 -6 4 -13 10 -16 6 -3 7 1 4 9 -7 18 -14 21 -14 7z"/>
<path d="M675 465 c-3 -8 -7 -21 -9 -29 -6 -17 13 -36 36 -36 11 0 18 7 18 20
0 11 -4 20 -10 20 -5 0 -7 -7 -4 -15 4 -9 0 -15 -10 -15 -26 0 -21 49 7 60
l22 9 -23 0 c-12 1 -25 -6 -27 -14z"/>
<path d="M741 470 c-13 -7 -13 -11 -1 -25 12 -15 14 -15 23 0 11 21 -3 37 -22
25z m19 -10 c0 -5 -5 -10 -11 -10 -5 0 -7 5 -4 10 3 6 8 10 11 10 2 0 4 -4 4
-10z"/>
<path d="M784 466 c-8 -22 3 -49 19 -43 6 2 12 14 12 27 0 27 -22 39 -31 16z
m26 -16 c0 -11 -4 -20 -10 -20 -5 0 -10 9 -10 20 0 11 5 20 10 20 6 0 10 -9
10 -20z"/>
<path d="M884 466 c-10 -26 -1 -38 20 -23 16 12 16 14 2 26 -13 11 -17 11 -22
-3z"/>
<path d="M831 453 c-1 -27 16 -40 32 -24 9 9 8 11 -5 6 -12 -5 -18 0 -21 17
-4 22 -4 22 -6 1z"/>
</g>
</svg>
